<mxfile host="app.diagrams.net" modified="2023-04-25T04:06:39.159Z" agent="Mozilla/5.0 (Windows NT 10.0; Win64; x64) AppleWebKit/537.36 (KHTML, like Gecko) Chrome/112.0.0.0 Safari/537.36" version="21.2.1" etag="xDGikCc6NCzkSmohWlpY" type="github">
  <diagram name="Страница 1" id="thOpk9RJh2J_s7iEtzKq">
    <mxGraphModel>
      <root>
        <mxCell id="0" />
        <mxCell id="1" parent="0" />
      </root>
    </mxGraphModel>
  </diagram>
</mxfile>
